<?xml version="1.0" encoding="utf-8"?>
<!-- Generator: Adobe Illustrator 15.1.0, SVG Export Plug-In . SVG Version: 6.00 Build 0)  -->
<!DOCTYPE svg PUBLIC "-//W3C//DTD SVG 1.1//EN" "http://www.w3.org/Graphics/SVG/1.1/DTD/svg11.dtd">
<svg version="1.1" id="Layer_1" xmlns="http://www.w3.org/2000/svg" xmlns:xlink="http://www.w3.org/1999/xlink" x="0px" y="0px"
	 width="193.292px" height="250.723px" viewBox="0 0 193.292 250.723" enable-background="new 0 0 193.292 250.723"
	 xml:space="preserve">
<g>
	<path fill="#6C9C31" d="M20.304,125.363c8.154-7.761,19.431-14.179,33.862-19.257c8.144-2.811,16.914-5.201,26.313-7.146
		c7.037-1.465,13.755-2.987,20.15-4.566c-1.632-0.371-3.274-0.744-4.931-1.117c-12.604-2.924-21.098-6.206-25.497-9.831
		c-4.4-3.633-6.598-8.535-6.598-14.711c0-4.201,1.387-8.002,4.154-11.396c2.771-3.399,6.063-5.957,9.863-7.684
		c4.673-2.159,9.129-3.613,13.364-4.367c1.661-0.294,3.439-0.518,5.274-0.695c-3.009-0.291-5.591-0.441-7.746-0.441
		c-13.802,0-28.039,2.768-42.713,8.317C31.133,58.006,17.715,65.941,5.545,76.263H1.548c0.038,16.693,4.104,30.599,12.212,41.702
		C15.651,120.555,17.838,123.016,20.304,125.363"/>
	<path fill="#C9DA2A" d="M183.721,42.882V16.283c-11.29-4.991-24.073-8.954-38.341-11.886c-14.272-2.931-28.625-4.391-43.06-4.391
		c-2.298,0-4.55,0.057-6.791,0.141c28.754,1.059,51.883,8.306,69.346,21.786C172.837,28.079,179.103,35.07,183.721,42.882"/>
	<path fill="#F16522" d="M193.292,170.785c0-16.792-4.104-30.308-12.303-40.546c-1.354-1.682-2.827-3.301-4.409-4.872
		c-8.044,7.977-19.076,14.503-33.136,19.575c-8.586,3.03-16.654,5.412-24.197,7.146c-6.016,1.378-12.229,2.799-18.619,4.241
		c2.145,0.534,4.252,1.071,6.321,1.615c6.624,1.729,12.325,4.491,17.113,8.285c4.771,3.794,7.168,8.719,7.168,14.782
		c0,5.426-1.473,9.795-4.405,13.106c-2.935,3.304-6.519,5.891-10.758,7.735c-3.478,1.628-8.075,2.817-13.778,3.574
		c-2.168,0.293-4.179,0.531-6.026,0.71c2.827,0.271,5.835,0.432,9.065,0.432c13.69,0,27.025-2.66,40.004-7.969
		c12.985-5.313,23.986-11.819,33.008-19.514h5.381v28.753C190.087,197.068,193.292,184.718,193.292,170.785"/>
	<path fill="#FFF100" d="M1.544,174.678c0-0.073,0.004-0.146,0.004-0.224H0v57.571c12.055,5.31,25.101,9.751,39.159,13.33
		c14.058,3.582,30.374,5.367,48.937,5.367c2.523,0,4.993-0.062,7.436-0.149c-25.765-1.032-47.496-7.991-65.172-20.894
		C11.151,215.648,1.544,197.313,1.544,174.678"/>
	<path fill="#00ADEE" d="M90.986,205.432c-4.238-0.75-8.693-2.203-13.364-4.361c-3.798-1.728-7.091-4.281-9.863-7.681
		c-2.768-3.399-4.152-7.197-4.152-11.405c0-6.172,2.193-11.075,6.596-14.701c4.397-3.631,12.896-6.906,25.497-9.831
		c1.659-0.379,3.297-0.75,4.931-1.125c-6.396-1.585-13.113-3.104-20.153-4.564c-9.395-1.947-18.169-4.329-26.309-7.139
		c-14.431-5.083-25.71-11.504-33.864-19.258c-2.468,2.342-4.656,4.799-6.542,7.394C5.653,143.859,1.583,157.765,1.55,174.455h3.994
		c12.168,10.326,25.591,18.267,40.26,23.803c14.674,5.547,28.906,8.316,42.711,8.316c2.157,0,4.738-0.153,7.748-0.436
		C94.425,205.952,92.649,205.725,90.986,205.432"/>
	<path fill="#EC1C24" d="M116.067,48.874c4.239,1.846,7.823,4.425,10.758,7.737c2.933,3.308,4.405,7.671,4.405,13.099
		c0,6.063-2.396,10.996-7.166,14.788c-4.79,3.791-10.491,6.553-17.115,8.286c-2.065,0.539-4.177,1.077-6.321,1.609
		c6.391,1.443,12.604,2.865,18.619,4.239c7.543,1.739,15.611,4.122,24.193,7.151c14.063,5.071,25.096,11.594,33.14,19.579
		c1.582-1.573,3.056-3.194,4.409-4.874c8.199-10.237,12.303-23.752,12.303-40.545c0-13.941-3.201-26.292-9.571-37.062v28.752h-5.381
		c-9.021-7.689-20.022-14.197-33.008-19.508c-12.979-5.313-26.313-7.975-40.004-7.975c-3.23,0-6.238,0.161-9.063,0.441
		c1.846,0.178,3.856,0.408,6.024,0.701C107.992,46.047,112.59,47.247,116.067,48.874"/>
	<path fill="#EB008B" d="M1.544,76.047c0-22.638,9.607-40.972,28.815-55.002C48.036,8.14,69.765,1.184,95.531,0.148
		C93.089,0.062,90.619,0,88.096,0C69.532,0,53.217,1.793,39.159,5.366C25.101,8.943,12.055,13.388,0,18.701v57.565h1.548
		C1.548,76.193,1.544,76.117,1.544,76.047"/>
	<path fill="#652D90" d="M164.875,228.795c-17.463,13.472-40.592,20.721-69.344,21.778c2.237,0.088,4.491,0.149,6.789,0.149
		c14.435,0,28.787-1.463,43.06-4.397c14.268-2.932,27.051-6.894,38.341-11.881V207.84
		C179.103,215.652,172.835,222.644,164.875,228.795"/>
</g>
</svg>
